{
	"asset":{
		"generator":"Khronos glTF Blender I/O v3.6.27",
		"version":"2.0"
	},
	"extensionsUsed":[
		"KHR_materials_specular",
		"KHR_materials_ior"
	],
	"scene":0,
	"scenes":[
		{
			"name":"Scene",
			"nodes":[
				0,
				1
			]
		}
	],
	"nodes":[
		{
			"mesh":0,
			"name":"toytrain_01",
			"rotation":[
				0.7071067690849304,
				0,
				0,
				0.7071068286895752
			],
			"scale":[
				0.8518347144126892,
				0.8518347144126892,
				0.8518347144126892
			],
			"translation":[
				-0.21326108276844025,
				-0.007523794192820787,
				0
			]
		},
		{
			"mesh":1,
			"name":"toytrain_02",
			"rotation":[
				0.7071067690849304,
				0,
				0,
				0.7071068286895752
			],
			"scale":[
				0.8518347144126892,
				0.8518347144126892,
				0.8518347144126892
			],
			"translation":[
				0.1960575133562088,
				-0.007523794192820787,
				0
			]
		}
	],
	"materials":[
		{
			"doubleSided":true,
			"extensions":{
				"KHR_materials_specular":{
					"specularColorTexture":{
						"index":0
					},
					"specularColorFactor":[
						2.371357614441398,
						2.371357614441398,
						2.371357614441398
					]
				},
				"KHR_materials_ior":{
					"ior":1.4500000476837158
				}
			},
			"name":"toytrain",
			"normalTexture":{
				"index":1
			},
			"pbrMetallicRoughness":{
				"baseColorTexture":{
					"index":2
				},
				"metallicRoughnessTexture":{
					"index":3
				}
			}
		}
	],
	"meshes":[
		{
			"name":"Mesh",
			"primitives":[
				{
					"attributes":{
						"POSITION":0,
						"NORMAL":1,
						"TEXCOORD_0":2,
						"TEXCOORD_1":3
					},
					"indices":4,
					"material":0
				}
			]
		},
		{
			"name":"Mesh.001",
			"primitives":[
				{
					"attributes":{
						"POSITION":5,
						"NORMAL":6,
						"TEXCOORD_0":7,
						"TEXCOORD_1":8
					},
					"indices":9,
					"material":0
				}
			]
		}
	],
	"textures":[
		{
			"sampler":0,
			"source":0
		},
		{
			"sampler":0,
			"source":1
		},
		{
			"sampler":0,
			"source":2
		},
		{
			"sampler":0,
			"source":3
		}
	],
	"images":[
		{
			"mimeType":"image/png",
			"name":"Image",
			"uri":"Image.png"
		},
		{
			"mimeType":"image/png",
			"name":"toytrain_Normal",
			"uri":"toytrain_Normal.png"
		},
		{
			"mimeType":"image/png",
			"name":"toytrain_Albedo",
			"uri":"toytrain_Albedo.png"
		},
		{
			"mimeType":"image/png",
			"name":"toytrain_Roughness",
			"uri":"toytrain_Roughness.png"
		}
	],
	"accessors":[
		{
			"bufferView":0,
			"componentType":5126,
			"count":2564,
			"max":[
				0.27116090059280396,
				0.06677331775426865,
				-0.009952002204954624
			],
			"min":[
				-0.21887344121932983,
				-0.06677331775426865,
				-0.22134923934936523
			],
			"type":"VEC3"
		},
		{
			"bufferView":1,
			"componentType":5126,
			"count":2564,
			"type":"VEC3"
		},
		{
			"bufferView":2,
			"componentType":5126,
			"count":2564,
			"type":"VEC2"
		},
		{
			"bufferView":3,
			"componentType":5126,
			"count":2564,
			"type":"VEC2"
		},
		{
			"bufferView":4,
			"componentType":5123,
			"count":6306,
			"type":"SCALAR"
		},
		{
			"bufferView":5,
			"componentType":5126,
			"count":1504,
			"max":[
				0.2012159675359726,
				0.08478282392024994,
				-0.009977633133530617
			],
			"min":[
				-0.2012159824371338,
				-0.08478282392024994,
				-0.19742195308208466
			],
			"type":"VEC3"
		},
		{
			"bufferView":6,
			"componentType":5126,
			"count":1504,
			"type":"VEC3"
		},
		{
			"bufferView":7,
			"componentType":5126,
			"count":1504,
			"type":"VEC2"
		},
		{
			"bufferView":8,
			"componentType":5126,
			"count":1504,
			"type":"VEC2"
		},
		{
			"bufferView":9,
			"componentType":5123,
			"count":3420,
			"type":"SCALAR"
		}
	],
	"bufferViews":[
		{
			"buffer":0,
			"byteLength":30768,
			"byteOffset":0,
			"target":34962
		},
		{
			"buffer":0,
			"byteLength":30768,
			"byteOffset":30768,
			"target":34962
		},
		{
			"buffer":0,
			"byteLength":20512,
			"byteOffset":61536,
			"target":34962
		},
		{
			"buffer":0,
			"byteLength":20512,
			"byteOffset":82048,
			"target":34962
		},
		{
			"buffer":0,
			"byteLength":12612,
			"byteOffset":102560,
			"target":34963
		},
		{
			"buffer":0,
			"byteLength":18048,
			"byteOffset":115172,
			"target":34962
		},
		{
			"buffer":0,
			"byteLength":18048,
			"byteOffset":133220,
			"target":34962
		},
		{
			"buffer":0,
			"byteLength":12032,
			"byteOffset":151268,
			"target":34962
		},
		{
			"buffer":0,
			"byteLength":12032,
			"byteOffset":163300,
			"target":34962
		},
		{
			"buffer":0,
			"byteLength":6840,
			"byteOffset":175332,
			"target":34963
		}
	],
	"samplers":[
		{
			"magFilter":9729,
			"minFilter":9987
		}
	],
	"buffers":[
		{
			"byteLength":182172,
			"uri":"train.bin"
		}
	]
}
